<svg xmlns="http://www.w3.org/2000/svg" viewBox="0 0 256 256" width="256" height="256" role="img" aria-label="Wanita berhijab helm proyek">
  <defs>
    <clipPath id="clip"><circle cx="128" cy="128" r="128"/></clipPath>
    <radialGradient id="bg" cx="30%" cy="25%" r="90%">
      <stop offset="0" stop-color="#fee5c8"/>
      <stop offset="0.55" stop-color="#fed7aa"/>
      <stop offset="1" stop-color="#b79b7a"/>
    </radialGradient>
    <radialGradient id="skin" cx="35%" cy="30%" r="75%">
      <stop offset="0" stop-color="#ecc7ab"/>
      <stop offset="0.55" stop-color="#e2a97e"/>
      <stop offset="1" stop-color="#a37a5b"/>
    </radialGradient>
    <radialGradient id="skinShade"><stop offset="0" stop-color="#9e7658"/><stop offset="1" stop-color="#cb9871"/></radialGradient>
    <linearGradient id="neck" x1="0" y1="0" x2="0" y2="1">
      <stop offset="0" stop-color="#d3ac8f"/>
      <stop offset="1" stop-color="#957053"/>
    </linearGradient>
    <radialGradient id="shirt" cx="40%" cy="10%" r="100%">
      <stop offset="0" stop-color="#ecf0f5"/>
      <stop offset="0.55" stop-color="#e2e8f0"/>
      <stop offset="1" stop-color="#a3a7ad"/>
    </radialGradient>
    <filter id="soft" x="-20%" y="-20%" width="140%" height="140%"><feDropShadow dx="0" dy="4" stdDeviation="4" flood-color="#000" flood-opacity="0.22"/></filter>
    <radialGradient id="hijab" cx="35%" cy="20%" r="90%">
      <stop offset="0" stop-color="#87919e"/>
      <stop offset="0.55" stop-color="#475569"/>
      <stop offset="1" stop-color="#333d4c"/>
    </radialGradient>
    <radialGradient id="helmet" cx="35%" cy="20%" r="85%">
      <stop offset="0" stop-color="#fcde67"/>
      <stop offset="0.55" stop-color="#facc15"/>
      <stop offset="1" stop-color="#b4930f"/>
    </radialGradient>
    <linearGradient id="vest" x1="0" y1="0" x2="0" y2="1">
      <stop offset="0" stop-color="#ff974c"/>
      <stop offset="1" stop-color="#bf5c14"/>
    </linearGradient>
  </defs>
  <g clip-path="url(#clip)">
    <circle cx="128" cy="128" r="128" fill="url(#bg)"/>
    <circle cx="92" cy="70" r="70" fill="#fff" opacity="0.12"/>
    <g filter="url(#soft)">
    <path d="M24 262 C24 206 66 180 128 180 C190 180 232 206 232 262 Z" fill="url(#shirt)"/>
    <path d="M52 214 C66 196 92 188 116 186" stroke="#fff" stroke-width="6" stroke-linecap="round" fill="none" opacity="0.18"/>
    <path d="M40 262 C40 220 60 198 92 188 L110 262 Z" fill="url(#vest)"/>
    <path d="M216 262 C216 220 196 198 164 188 L146 262 Z" fill="url(#vest)"/>
    <path d="M48 236 L104 232 L106 244 L46 248 Z" fill="#e8eef2" opacity="0.9"/>
    <path d="M208 236 L152 232 L150 244 L210 248 Z" fill="#e8eef2" opacity="0.9"/>
    <path d="M58 124 C52 62 88 36 128 36 C168 36 204 62 198 124 C198 150 208 172 218 194 C226 214 218 236 202 244 C170 258 86 258 54 244 C38 236 30 214 38 194 C48 172 58 150 58 124 Z" fill="url(#hijab)"/>
    <path d="M70 186 C86 206 104 218 128 222 C152 218 170 206 186 186" stroke="#2e3744" stroke-width="3" opacity="0.35" fill="none" stroke-linecap="round"/>
    <path d="M50 214 C72 234 100 242 128 244" stroke="#2e3744" stroke-width="3" opacity="0.3" fill="none" stroke-linecap="round"/>
    <path d="M74 80 C84 58 104 46 124 44" stroke="#fff" stroke-width="7" opacity="0.22" fill="none" stroke-linecap="round"/>
    <ellipse cx="128" cy="120" rx="44" ry="50" fill="url(#skin)"/>
    <ellipse cx="110" cy="94" rx="18" ry="10" fill="#fff" opacity="0.18"/>
    <path d="M128 64 C96 64 78 88 78 122 C78 156 98 178 128 178 C158 178 178 156 178 122 C178 88 160 64 128 64 Z M128 70 C102 70 84 92 84 122 C84 154 102 172 128 172 C154 172 172 154 172 122 C172 92 154 70 128 70 Z" fill="#374252" fill-rule="evenodd"/>
    <path d="M86 98 C96 78 112 72 128 72 C144 72 160 78 170 98 C156 88 142 84 128 84 C114 84 100 88 86 98 Z" fill="#2b333f"/>
    
    <ellipse cx="100" cy="140" rx="10" ry="6" fill="#ff7a7a" opacity="0.25"/>
    <ellipse cx="156" cy="140" rx="10" ry="6" fill="#ff7a7a" opacity="0.25"/>
    <ellipse cx="108" cy="120" rx="8" ry="9" fill="#fff"/>
    <circle cx="109" cy="121" r="5.6" fill="#3b2416"/>
    <circle cx="109" cy="121" r="2.6" fill="#120b07"/>
    <circle cx="111" cy="118" r="2" fill="#fff"/>
    <path d="M100 116 Q108 108 116 116" stroke="#1d130d" stroke-width="2.4" fill="none" stroke-linecap="round"/>
    <path d="M100 116 l-4 -3" stroke="#1d130d" stroke-width="2" stroke-linecap="round"/>
    <ellipse cx="148" cy="120" rx="8" ry="9" fill="#fff"/>
    <circle cx="149" cy="121" r="5.6" fill="#3b2416"/>
    <circle cx="149" cy="121" r="2.6" fill="#120b07"/>
    <circle cx="151" cy="118" r="2" fill="#fff"/>
    <path d="M140 116 Q148 108 156 116" stroke="#1d130d" stroke-width="2.4" fill="none" stroke-linecap="round"/>
    <path d="M156 116 l4 -3" stroke="#1d130d" stroke-width="2" stroke-linecap="round"/>
    <path d="M97 104 Q108 98 118 104" stroke="#664c39" stroke-width="3" fill="none" stroke-linecap="round"/>
    <path d="M138 104 Q148 98 159 104" stroke="#664c39" stroke-width="3" fill="none" stroke-linecap="round"/>
    <path d="M128 126 Q132 138 126 140" stroke="#9e7658" stroke-width="2.4" fill="none" stroke-linecap="round"/>
    <path d="M114 150 Q128 164 142 150 Q128 155 114 150 Z" fill="#c4465a"/>
    <path d="M120 155 Q128 158 136 155" stroke="#fff" stroke-width="1.6" opacity="0.5" fill="none" stroke-linecap="round"/>
    <path d="M68 104 C66 56 96 34 128 34 C160 34 190 56 188 104 Z" fill="url(#helmet)"/>
    <path d="M58 104 C58 96 64 94 72 94 L184 94 C192 94 198 96 198 104 C198 110 192 112 184 112 L72 112 C64 112 58 110 58 104 Z" fill="#dcb412"/>
    <path d="M120 36 L136 36 L138 94 L118 94 Z" fill="#fbd644" opacity="0.8"/>
    <path d="M86 70 C94 52 108 44 120 42" stroke="#fff" stroke-width="6" opacity="0.35" fill="none" stroke-linecap="round"/>
    </g>
  </g>
</svg>
