<?xml version="1.0" encoding="UTF-8"?>
<svg xmlns="http://www.w3.org/2000/svg" width="100%" height="390" viewBox="0 0 320 390" preserveAspectRatio="xMidYMid meet" ><defs>
    <marker id="arr-sop04pengawasanalur" viewBox="0 0 10 10" refX="9" refY="5" markerWidth="7" markerHeight="7" orient="auto">
      <path d="M0,0 L10,5 L0,10 z" fill="#2F5597"/>
    </marker>
  </defs><line x1="200" y1="56" x2="200" y2="100" stroke="#2F5597" stroke-width="2" marker-end="url(#arr-sop04pengawasanalur)"/><line x1="200" y1="134" x2="200" y2="178" stroke="#2F5597" stroke-width="2" marker-end="url(#arr-sop04pengawasanalur)"/><line x1="200" y1="212" x2="200" y2="247" stroke="#2F5597" stroke-width="2" marker-end="url(#arr-sop04pengawasanalur)"/><path d="M200 299 L200 316.5 L280 316.5 L280 334" fill="none" stroke="#2F5597" stroke-width="2" marker-end="url(#arr-sop04pengawasanalur)"/><g>
    <rect x="169" y="22" width="62" height="34" rx="4" fill="#5B9BD5" stroke="#000" stroke-width="1.5"/>
    <text x="200" y="43" text-anchor="middle" font-size="9" font-weight="bold" fill="#fff" font-family="Arial">SSO</text>
  </g><g>
    <rect x="169" y="100" width="62" height="34" rx="4" fill="#E74C3C" stroke="#000" stroke-width="1.5"/>
    <text x="200" y="121" text-anchor="middle" font-size="9" font-weight="bold" fill="#fff" font-family="Arial">Lapangan</text>
  </g><g>
    <rect x="169" y="178" width="62" height="34" rx="4" fill="#5B9BD5" stroke="#000" stroke-width="1.5"/>
    <text x="200" y="199" text-anchor="middle" font-size="9" font-weight="bold" fill="#fff" font-family="Arial">Laporan</text>
  </g><path d="M224 273 L280 273" fill="none" stroke="#2F5597" stroke-width="1.8"/><text x="252" y="268" text-anchor="middle" font-size="9" font-weight="bold" fill="#2F5597" font-family="Arial">Tidak</text><g>
      <polygon points="200,247 226,273 200,299 174,273" fill="#C6E0B4" stroke="#000" stroke-width="1.5"/>
      <text x="200" y="277" text-anchor="middle" font-size="8" font-weight="bold" font-family="Arial">Kendala?</text>
      <text x="200" y="313" text-anchor="middle" font-size="8" font-weight="bold" fill="#2F5597" font-family="Arial">Ya</text>
    </g><g>
    <rect x="249" y="334" width="62" height="34" rx="4" fill="#5B9BD5" stroke="#000" stroke-width="1.5"/>
    <text x="280" y="355" text-anchor="middle" font-size="9" font-weight="bold" fill="#fff" font-family="Arial">Sinkron</text>
  </g></svg>