<?xml version="1.0" encoding="UTF-8"?>
<svg xmlns="http://www.w3.org/2000/svg" width="100%" height="468" viewBox="0 0 320 468" preserveAspectRatio="xMidYMid meet" ><defs>
    <marker id="arr-sop02program" viewBox="0 0 10 10" refX="9" refY="5" markerWidth="7" markerHeight="7" orient="auto">
      <path d="M0,0 L10,5 L0,10 z" fill="#2F5597"/>
    </marker>
  </defs><line x1="120" y1="56" x2="120" y2="100" stroke="#2F5597" stroke-width="2" marker-end="url(#arr-sop02program)"/><line x1="120" y1="134" x2="120" y2="178" stroke="#2F5597" stroke-width="2" marker-end="url(#arr-sop02program)"/><line x1="120" y1="212" x2="120" y2="256" stroke="#2F5597" stroke-width="2" marker-end="url(#arr-sop02program)"/><line x1="120" y1="290" x2="120" y2="334" stroke="#2F5597" stroke-width="2" marker-end="url(#arr-sop02program)"/><path d="M120 368 L120 385.5 L40 385.5 L40 403" fill="none" stroke="#2F5597" stroke-width="2" marker-end="url(#arr-sop02program)"/><path d="M64 429 L120 429" fill="none" stroke="#2F5597" stroke-width="1.8"/><text x="92" y="424" text-anchor="middle" font-size="9" font-weight="bold" fill="#2F5597" font-family="Arial">Tidak</text><path d="M120 429 L120 178" fill="none" stroke="#2F5597" stroke-width="1.5" stroke-dasharray="4,3" marker-end="url(#arr-sop02program)"/><g>
    <rect x="89" y="22" width="62" height="34" rx="4" fill="#5B9BD5" stroke="#000" stroke-width="1.5"/>
    <text x="120" y="43" text-anchor="middle" font-size="9" font-weight="bold" fill="#fff" font-family="Arial">Kegiatan</text>
  </g><g>
    <rect x="89" y="100" width="62" height="34" rx="4" fill="#5B9BD5" stroke="#000" stroke-width="1.5"/>
    <text x="120" y="121" text-anchor="middle" font-size="9" font-weight="bold" fill="#fff" font-family="Arial">Tambah</text>
  </g><g>
    <rect x="89" y="178" width="62" height="34" rx="4" fill="#E74C3C" stroke="#000" stroke-width="1.5"/>
    <text x="120" y="199" text-anchor="middle" font-size="9" font-weight="bold" fill="#fff" font-family="Arial">Pekerjaan</text>
  </g><g>
    <rect x="89" y="256" width="62" height="34" rx="4" fill="#5B9BD5" stroke="#000" stroke-width="1.5"/>
    <text x="120" y="277" text-anchor="middle" font-size="9" font-weight="bold" fill="#fff" font-family="Arial">Output</text>
  </g><g>
    <rect x="89" y="334" width="62" height="34" rx="4" fill="#5B9BD5" stroke="#000" stroke-width="1.5"/>
    <text x="120" y="355" text-anchor="middle" font-size="9" font-weight="bold" fill="#fff" font-family="Arial">Berkas</text>
  </g><g>
      <polygon points="40,403 66,429 40,455 14,429" fill="#C6E0B4" stroke="#000" stroke-width="1.5"/>
      <text x="40" y="433" text-anchor="middle" font-size="8" font-weight="bold" font-family="Arial">Lengkap?</text>
      <text x="40" y="469" text-anchor="middle" font-size="8" font-weight="bold" fill="#2F5597" font-family="Arial">Ya</text>
    </g></svg>