<?xml version="1.0" encoding="UTF-8"?>
<svg xmlns="http://www.w3.org/2000/svg" width="100%" height="312" viewBox="0 0 320 312" preserveAspectRatio="xMidYMid meet" ><defs>
    <marker id="arr-sop03kontrakalur" viewBox="0 0 10 10" refX="9" refY="5" markerWidth="7" markerHeight="7" orient="auto">
      <path d="M0,0 L10,5 L0,10 z" fill="#2F5597"/>
    </marker>
  </defs><line x1="120" y1="56" x2="120" y2="100" stroke="#2F5597" stroke-width="2" marker-end="url(#arr-sop03kontrakalur)"/><line x1="120" y1="134" x2="120" y2="169" stroke="#2F5597" stroke-width="2" marker-end="url(#arr-sop03kontrakalur)"/><path d="M120 221 L120 238.5 L40 238.5 L40 256" fill="none" stroke="#2F5597" stroke-width="2" marker-end="url(#arr-sop03kontrakalur)"/><g>
    <rect x="89" y="22" width="62" height="34" rx="4" fill="#5B9BD5" stroke="#000" stroke-width="1.5"/>
    <text x="120" y="43" text-anchor="middle" font-size="9" font-weight="bold" fill="#fff" font-family="Arial">Prasyarat</text>
  </g><g>
    <rect x="89" y="100" width="62" height="34" rx="4" fill="#E74C3C" stroke="#000" stroke-width="1.5"/>
    <text x="120" y="121" text-anchor="middle" font-size="9" font-weight="bold" fill="#fff" font-family="Arial">Kontrak</text>
  </g><path d="M96 195 L40 195" fill="none" stroke="#2F5597" stroke-width="1.8"/><text x="68" y="190" text-anchor="middle" font-size="9" font-weight="bold" fill="#2F5597" font-family="Arial">Tidak</text><g>
      <polygon points="120,169 146,195 120,221 94,195" fill="#C6E0B4" stroke="#000" stroke-width="1.5"/>
      <text x="120" y="199" text-anchor="middle" font-size="8" font-weight="bold" font-family="Arial">Addendum?</text>
      <text x="120" y="235" text-anchor="middle" font-size="8" font-weight="bold" fill="#2F5597" font-family="Arial">Ya</text>
    </g><g>
    <rect x="9" y="256" width="62" height="34" rx="4" fill="#5B9BD5" stroke="#000" stroke-width="1.5"/>
    <text x="40" y="277" text-anchor="middle" font-size="9" font-weight="bold" fill="#fff" font-family="Arial">Selesai</text>
  </g></svg>