<?xml version="1.0" encoding="UTF-8"?>
<svg xmlns="http://www.w3.org/2000/svg" width="480" height="476" viewBox="0 0 480 476">
  <rect width="100%" height="100%" fill="#ffffff"/>
  <defs>
  <marker id="arr" viewBox="0 0 10 10" refX="9" refY="5" markerWidth="8" markerHeight="8" orient="auto">
    <path d="M0,0 L10,5 L0,10 z" fill="#2F5597"/>
  </marker>
</defs><line x1="240" y1="72" x2="240" y2="100" stroke="#2F5597" stroke-width="2" marker-end="url(#arr)"/><line x1="240" y1="148" x2="240" y2="172" stroke="#2F5597" stroke-width="2" marker-end="url(#arr)"/><line x1="240" y1="228" x2="240" y2="252" stroke="#2F5597" stroke-width="2" marker-end="url(#arr)"/><text x="254" y="240" font-size="11" font-weight="bold" fill="#2F5597" font-family="Arial">Ya</text><line x1="240" y1="300" x2="240" y2="328" stroke="#2F5597" stroke-width="2" marker-end="url(#arr)"/><line x1="240" y1="376" x2="240" y2="404" stroke="#2F5597" stroke-width="2" marker-end="url(#arr)"/><path d="M272 200 L340 200 L340 124 L310 124" fill="none" stroke="#2F5597" stroke-width="1.6" stroke-dasharray="5,3" marker-end="url(#arr)"/><text x="344" y="194" font-size="11" font-weight="bold" fill="#2F5597" font-family="Arial">Tidak</text><rect x="165" y="24" width="150" height="48" rx="6" fill="#5B9BD5" stroke="#000" stroke-width="1.5"/><text x="240" y="44" text-anchor="middle" font-size="12" font-weight="bold" fill="#fff" font-family="Arial">1. User</text><text x="240" y="62" text-anchor="middle" font-size="11" fill="#fff" font-family="Arial">(Operator)</text><rect x="165" y="100" width="150" height="48" rx="6" fill="#5B9BD5" stroke="#000" stroke-width="1.5"/><text x="240" y="120" text-anchor="middle" font-size="12" font-weight="bold" fill="#fff" font-family="Arial">2. Login</text><text x="240" y="138" text-anchor="middle" font-size="11" fill="#fff" font-family="Arial">(Operator)</text><polygon points="240,172 268,200 240,228 212,200" fill="#C6E0B4" stroke="#000" stroke-width="1.5"/><text x="240" y="198" text-anchor="middle" font-size="11" font-weight="bold" font-family="Arial">3. Berhasil?</text><text x="240" y="212" text-anchor="middle" font-size="10" font-family="Arial" fill="#333">(Sistem)</text><rect x="165" y="252" width="150" height="48" rx="6" fill="#E74C3C" stroke="#000" stroke-width="1.5"/><text x="240" y="272" text-anchor="middle" font-size="12" font-weight="bold" fill="#fff" font-family="Arial">4. Role</text><text x="240" y="290" text-anchor="middle" font-size="11" fill="#fff" font-family="Arial">(Sistem)</text><rect x="165" y="328" width="150" height="48" rx="6" fill="#5B9BD5" stroke="#000" stroke-width="1.5"/><text x="240" y="348" text-anchor="middle" font-size="12" font-weight="bold" fill="#fff" font-family="Arial">5. SSO</text><text x="240" y="366" text-anchor="middle" font-size="11" fill="#fff" font-family="Arial">(Pengawas)</text><rect x="165" y="404" width="150" height="48" rx="6" fill="#5B9BD5" stroke="#000" stroke-width="1.5"/><text x="240" y="424" text-anchor="middle" font-size="12" font-weight="bold" fill="#fff" font-family="Arial">6. Selesai</text><text x="240" y="442" text-anchor="middle" font-size="11" fill="#fff" font-family="Arial">(Operator)</text>
</svg>