<?xml version="1.0" encoding="UTF-8"?>
<svg xmlns="http://www.w3.org/2000/svg" width="480" height="400" viewBox="0 0 480 400">
  <rect width="100%" height="100%" fill="#ffffff"/>
  <defs>
  <marker id="arr" viewBox="0 0 10 10" refX="9" refY="5" markerWidth="8" markerHeight="8" orient="auto">
    <path d="M0,0 L10,5 L0,10 z" fill="#2F5597"/>
  </marker>
</defs><line x1="240" y1="72" x2="240" y2="100" stroke="#2F5597" stroke-width="2" marker-end="url(#arr)"/><line x1="240" y1="148" x2="240" y2="176" stroke="#2F5597" stroke-width="2" marker-end="url(#arr)"/><line x1="240" y1="224" x2="240" y2="248" stroke="#2F5597" stroke-width="2" marker-end="url(#arr)"/><line x1="240" y1="304" x2="240" y2="328" stroke="#2F5597" stroke-width="2" marker-end="url(#arr)"/><text x="254" y="316" font-size="11" font-weight="bold" fill="#2F5597" font-family="Arial">Ya</text><rect x="165" y="24" width="150" height="48" rx="6" fill="#5B9BD5" stroke="#000" stroke-width="1.5"/><text x="240" y="44" text-anchor="middle" font-size="12" font-weight="bold" fill="#fff" font-family="Arial">1. SSO</text><text x="240" y="62" text-anchor="middle" font-size="11" fill="#fff" font-family="Arial">(Pengawas)</text><rect x="165" y="100" width="150" height="48" rx="6" fill="#E74C3C" stroke="#000" stroke-width="1.5"/><text x="240" y="120" text-anchor="middle" font-size="12" font-weight="bold" fill="#fff" font-family="Arial">2. Lapangan</text><text x="240" y="138" text-anchor="middle" font-size="11" fill="#fff" font-family="Arial">(Pengawas)</text><rect x="165" y="176" width="150" height="48" rx="6" fill="#5B9BD5" stroke="#000" stroke-width="1.5"/><text x="240" y="196" text-anchor="middle" font-size="12" font-weight="bold" fill="#fff" font-family="Arial">3. Laporan</text><text x="240" y="214" text-anchor="middle" font-size="11" fill="#fff" font-family="Arial">(Pengawas)</text><polygon points="240,248 268,276 240,304 212,276" fill="#C6E0B4" stroke="#000" stroke-width="1.5"/><text x="240" y="274" text-anchor="middle" font-size="11" font-weight="bold" font-family="Arial">4. Kendala?</text><text x="240" y="288" text-anchor="middle" font-size="10" font-family="Arial" fill="#333">(Pengawas)</text><rect x="165" y="328" width="150" height="48" rx="6" fill="#5B9BD5" stroke="#000" stroke-width="1.5"/><text x="240" y="348" text-anchor="middle" font-size="12" font-weight="bold" fill="#fff" font-family="Arial">5. Sinkron</text><text x="240" y="366" text-anchor="middle" font-size="11" fill="#fff" font-family="Arial">(Sistem)</text>
</svg>